<mxfile host="app.diagrams.net" modified="2023-05-30T04:07:25.462Z" agent="Mozilla/5.0 (Windows NT 10.0; Win64; x64) AppleWebKit/537.36 (KHTML, like Gecko) Chrome/113.0.0.0 Safari/537.36 Edg/113.0.1774.57" etag="0ycej_gDkavmt1yrIR8B" version="21.3.2" type="github" pages="6">
  <diagram id="prtHgNgQTEPvFCAcTncT" name="账单同步">
    <mxGraphModel dx="899" dy="608" grid="1" gridSize="10" guides="1" tooltips="1" connect="1" arrows="1" fold="1" page="1" pageScale="1" pageWidth="1827" pageHeight="1169" math="0" shadow="0">
      <root>
        <mxCell id="0" />
        <mxCell id="1" parent="0" />
        <mxCell id="dNxyNK7c78bLwvsdeMH5-19" value="生成账单（实时同步）" style="swimlane;html=1;childLayout=stackLayout;resizeParent=1;resizeParentMax=0;horizontal=0;startSize=20;horizontalStack=0;" parent="1" vertex="1">
          <mxGeometry x="120" y="120" width="480" height="460" as="geometry" />
        </mxCell>
        <mxCell id="dNxyNK7c78bLwvsdeMH5-20" value="KDN-OnlineRecord&lt;br&gt;KDN后台&lt;br&gt;（3.0）" style="swimlane;html=1;startSize=20;horizontal=0;" parent="dNxyNK7c78bLwvsdeMH5-19" vertex="1">
          <mxGeometry x="20" width="460" height="190" as="geometry">
            <mxRectangle x="20" width="760" height="60" as="alternateBounds" />
          </mxGeometry>
        </mxCell>
        <mxCell id="dNxyNK7c78bLwvsdeMH5-25" value="" style="edgeStyle=orthogonalEdgeStyle;rounded=0;orthogonalLoop=1;jettySize=auto;html=1;" parent="dNxyNK7c78bLwvsdeMH5-20" source="dNxyNK7c78bLwvsdeMH5-23" target="dNxyNK7c78bLwvsdeMH5-24" edge="1">
          <mxGeometry relative="1" as="geometry" />
        </mxCell>
        <mxCell id="dNxyNK7c78bLwvsdeMH5-23" value="" style="ellipse;whiteSpace=wrap;html=1;" parent="dNxyNK7c78bLwvsdeMH5-20" vertex="1">
          <mxGeometry x="40" y="40" width="40" height="40" as="geometry" />
        </mxCell>
        <mxCell id="dNxyNK7c78bLwvsdeMH5-24" value="已签收" style="rounded=0;whiteSpace=wrap;html=1;fontFamily=Helvetica;fontSize=12;fontColor=#000000;align=center;" parent="dNxyNK7c78bLwvsdeMH5-20" vertex="1">
          <mxGeometry x="120" y="30" width="80" height="60" as="geometry" />
        </mxCell>
        <mxCell id="dNxyNK7c78bLwvsdeMH5-32" value="" style="ellipse;whiteSpace=wrap;html=1;" parent="dNxyNK7c78bLwvsdeMH5-20" vertex="1">
          <mxGeometry x="350" y="40" width="40" height="40" as="geometry" />
        </mxCell>
        <mxCell id="dNxyNK7c78bLwvsdeMH5-21" value="对账服务" style="swimlane;html=1;startSize=20;horizontal=0;" parent="dNxyNK7c78bLwvsdeMH5-19" vertex="1">
          <mxGeometry x="20" y="190" width="460" height="120" as="geometry" />
        </mxCell>
        <mxCell id="dNxyNK7c78bLwvsdeMH5-26" value="生成记账单" style="rounded=0;whiteSpace=wrap;html=1;fontFamily=Helvetica;fontSize=12;fontColor=#000000;align=center;" parent="dNxyNK7c78bLwvsdeMH5-21" vertex="1">
          <mxGeometry x="120" y="24" width="80" height="60" as="geometry" />
        </mxCell>
        <mxCell id="dNxyNK7c78bLwvsdeMH5-22" value="对账服务DB" style="swimlane;html=1;startSize=20;horizontal=0;" parent="dNxyNK7c78bLwvsdeMH5-19" vertex="1">
          <mxGeometry x="20" y="310" width="460" height="150" as="geometry" />
        </mxCell>
        <mxCell id="uPmhdonnpwf8vEVmP7HE-3" value="bill202303" style="strokeWidth=2;html=1;shape=mxgraph.flowchart.database;whiteSpace=wrap;" parent="dNxyNK7c78bLwvsdeMH5-22" vertex="1">
          <mxGeometry x="270" y="10" width="79" height="50" as="geometry" />
        </mxCell>
        <mxCell id="uPmhdonnpwf8vEVmP7HE-6" value="bill202304" style="strokeWidth=2;html=1;shape=mxgraph.flowchart.database;whiteSpace=wrap;" parent="dNxyNK7c78bLwvsdeMH5-22" vertex="1">
          <mxGeometry x="270" y="62" width="80" height="40" as="geometry" />
        </mxCell>
        <mxCell id="uPmhdonnpwf8vEVmP7HE-7" value="bill202305" style="strokeWidth=2;html=1;shape=mxgraph.flowchart.database;whiteSpace=wrap;" parent="dNxyNK7c78bLwvsdeMH5-22" vertex="1">
          <mxGeometry x="270" y="102" width="80" height="40" as="geometry" />
        </mxCell>
        <mxCell id="uPmhdonnpwf8vEVmP7HE-12" value="分表策略" style="rounded=0;whiteSpace=wrap;html=1;fontFamily=Helvetica;fontSize=12;fontColor=#000000;align=center;" parent="dNxyNK7c78bLwvsdeMH5-22" vertex="1">
          <mxGeometry x="120" y="52.5" width="80" height="60" as="geometry" />
        </mxCell>
        <mxCell id="uPmhdonnpwf8vEVmP7HE-14" value="" style="edgeStyle=orthogonalEdgeStyle;rounded=0;orthogonalLoop=1;jettySize=auto;html=1;endArrow=classic;endFill=1;entryX=0;entryY=0.5;entryDx=0;entryDy=0;entryPerimeter=0;" parent="dNxyNK7c78bLwvsdeMH5-22" target="uPmhdonnpwf8vEVmP7HE-6" edge="1">
          <mxGeometry relative="1" as="geometry">
            <mxPoint x="200" y="82" as="sourcePoint" />
            <mxPoint x="240" y="82" as="targetPoint" />
          </mxGeometry>
        </mxCell>
        <mxCell id="uPmhdonnpwf8vEVmP7HE-1" style="edgeStyle=orthogonalEdgeStyle;rounded=0;orthogonalLoop=1;jettySize=auto;html=1;endArrow=classic;endFill=1;entryX=0.5;entryY=0;entryDx=0;entryDy=0;exitX=0.5;exitY=1;exitDx=0;exitDy=0;" parent="dNxyNK7c78bLwvsdeMH5-19" source="dNxyNK7c78bLwvsdeMH5-24" target="dNxyNK7c78bLwvsdeMH5-26" edge="1">
          <mxGeometry relative="1" as="geometry">
            <mxPoint x="310" y="210" as="sourcePoint" />
            <mxPoint x="310" y="270" as="targetPoint" />
          </mxGeometry>
        </mxCell>
        <mxCell id="uPmhdonnpwf8vEVmP7HE-2" value="http/kafka" style="edgeLabel;html=1;align=center;verticalAlign=middle;resizable=0;points=[];" parent="uPmhdonnpwf8vEVmP7HE-1" vertex="1" connectable="0">
          <mxGeometry x="-0.2923" y="2" relative="1" as="geometry">
            <mxPoint as="offset" />
          </mxGeometry>
        </mxCell>
        <mxCell id="uPmhdonnpwf8vEVmP7HE-13" value="" style="edgeStyle=orthogonalEdgeStyle;rounded=0;orthogonalLoop=1;jettySize=auto;html=1;endArrow=classic;endFill=1;exitX=0.5;exitY=1;exitDx=0;exitDy=0;entryX=0.5;entryY=0;entryDx=0;entryDy=0;" parent="dNxyNK7c78bLwvsdeMH5-19" source="dNxyNK7c78bLwvsdeMH5-26" target="uPmhdonnpwf8vEVmP7HE-12" edge="1">
          <mxGeometry relative="1" as="geometry">
            <mxPoint x="170" y="290" as="sourcePoint" />
            <mxPoint x="230" y="290" as="targetPoint" />
            <Array as="points" />
          </mxGeometry>
        </mxCell>
        <mxCell id="dNxyNK7c78bLwvsdeMH5-29" value="" style="edgeStyle=orthogonalEdgeStyle;rounded=0;orthogonalLoop=1;jettySize=auto;html=1;endArrow=classic;endFill=1;entryX=0.5;entryY=1;entryDx=0;entryDy=0;" parent="dNxyNK7c78bLwvsdeMH5-19" source="dNxyNK7c78bLwvsdeMH5-26" target="dNxyNK7c78bLwvsdeMH5-32" edge="1">
          <mxGeometry relative="1" as="geometry">
            <mxPoint x="280" y="244" as="targetPoint" />
          </mxGeometry>
        </mxCell>
        <mxCell id="uPmhdonnpwf8vEVmP7HE-37" value="生成账单（实时同步）" style="swimlane;html=1;childLayout=stackLayout;resizeParent=1;resizeParentMax=0;horizontal=0;startSize=20;horizontalStack=0;" parent="1" vertex="1">
          <mxGeometry x="820" y="121" width="480" height="460" as="geometry" />
        </mxCell>
        <mxCell id="uPmhdonnpwf8vEVmP7HE-38" value="KDN-OnlineRecord&lt;br&gt;KDN后台&lt;br&gt;（3.0）" style="swimlane;html=1;startSize=20;horizontal=0;" parent="uPmhdonnpwf8vEVmP7HE-37" vertex="1">
          <mxGeometry x="20" width="460" height="180" as="geometry">
            <mxRectangle x="20" width="760" height="60" as="alternateBounds" />
          </mxGeometry>
        </mxCell>
        <mxCell id="uPmhdonnpwf8vEVmP7HE-39" value="" style="edgeStyle=orthogonalEdgeStyle;rounded=0;orthogonalLoop=1;jettySize=auto;html=1;" parent="uPmhdonnpwf8vEVmP7HE-38" source="uPmhdonnpwf8vEVmP7HE-40" target="uPmhdonnpwf8vEVmP7HE-41" edge="1">
          <mxGeometry relative="1" as="geometry" />
        </mxCell>
        <mxCell id="uPmhdonnpwf8vEVmP7HE-40" value="" style="ellipse;whiteSpace=wrap;html=1;" parent="uPmhdonnpwf8vEVmP7HE-38" vertex="1">
          <mxGeometry x="40" y="40" width="40" height="40" as="geometry" />
        </mxCell>
        <mxCell id="uPmhdonnpwf8vEVmP7HE-56" value="" style="edgeStyle=orthogonalEdgeStyle;rounded=0;orthogonalLoop=1;jettySize=auto;html=1;" parent="uPmhdonnpwf8vEVmP7HE-38" source="uPmhdonnpwf8vEVmP7HE-41" target="uPmhdonnpwf8vEVmP7HE-55" edge="1">
          <mxGeometry relative="1" as="geometry" />
        </mxCell>
        <mxCell id="uPmhdonnpwf8vEVmP7HE-41" value="取消" style="rounded=0;whiteSpace=wrap;html=1;fontFamily=Helvetica;fontSize=12;fontColor=#000000;align=center;" parent="uPmhdonnpwf8vEVmP7HE-38" vertex="1">
          <mxGeometry x="120" y="30" width="80" height="60" as="geometry" />
        </mxCell>
        <mxCell id="uPmhdonnpwf8vEVmP7HE-42" value="" style="ellipse;whiteSpace=wrap;html=1;" parent="uPmhdonnpwf8vEVmP7HE-38" vertex="1">
          <mxGeometry x="350" y="40" width="40" height="40" as="geometry" />
        </mxCell>
        <mxCell id="uPmhdonnpwf8vEVmP7HE-61" style="edgeStyle=orthogonalEdgeStyle;rounded=0;orthogonalLoop=1;jettySize=auto;html=1;exitX=1;exitY=0.5;exitDx=0;exitDy=0;entryX=0;entryY=0.5;entryDx=0;entryDy=0;" parent="uPmhdonnpwf8vEVmP7HE-38" source="uPmhdonnpwf8vEVmP7HE-55" target="uPmhdonnpwf8vEVmP7HE-42" edge="1">
          <mxGeometry relative="1" as="geometry" />
        </mxCell>
        <mxCell id="uPmhdonnpwf8vEVmP7HE-63" value="N" style="edgeLabel;html=1;align=center;verticalAlign=middle;resizable=0;points=[];" parent="uPmhdonnpwf8vEVmP7HE-61" vertex="1" connectable="0">
          <mxGeometry x="-0.2" relative="1" as="geometry">
            <mxPoint as="offset" />
          </mxGeometry>
        </mxCell>
        <mxCell id="uPmhdonnpwf8vEVmP7HE-55" value="揽件后取消" style="rhombus;whiteSpace=wrap;html=1;fontColor=#000000;rounded=0;" parent="uPmhdonnpwf8vEVmP7HE-38" vertex="1">
          <mxGeometry x="231" y="37.5" width="80" height="45" as="geometry" />
        </mxCell>
        <mxCell id="uPmhdonnpwf8vEVmP7HE-43" value="对账服务" style="swimlane;html=1;startSize=20;horizontal=0;" parent="uPmhdonnpwf8vEVmP7HE-37" vertex="1">
          <mxGeometry x="20" y="180" width="460" height="120" as="geometry" />
        </mxCell>
        <mxCell id="uPmhdonnpwf8vEVmP7HE-44" value="删除记账单" style="rounded=0;whiteSpace=wrap;html=1;fontFamily=Helvetica;fontSize=12;fontColor=#000000;align=center;" parent="uPmhdonnpwf8vEVmP7HE-43" vertex="1">
          <mxGeometry x="120" y="30" width="80" height="60" as="geometry" />
        </mxCell>
        <mxCell id="uPmhdonnpwf8vEVmP7HE-45" value="对账服务DB" style="swimlane;html=1;startSize=20;horizontal=0;" parent="uPmhdonnpwf8vEVmP7HE-37" vertex="1">
          <mxGeometry x="20" y="300" width="460" height="160" as="geometry" />
        </mxCell>
        <mxCell id="uPmhdonnpwf8vEVmP7HE-46" value="bill202303" style="strokeWidth=2;html=1;shape=mxgraph.flowchart.database;whiteSpace=wrap;" parent="uPmhdonnpwf8vEVmP7HE-45" vertex="1">
          <mxGeometry x="270" y="10" width="79" height="50" as="geometry" />
        </mxCell>
        <mxCell id="uPmhdonnpwf8vEVmP7HE-47" value="bill202304" style="strokeWidth=2;html=1;shape=mxgraph.flowchart.database;whiteSpace=wrap;" parent="uPmhdonnpwf8vEVmP7HE-45" vertex="1">
          <mxGeometry x="270" y="62" width="80" height="40" as="geometry" />
        </mxCell>
        <mxCell id="uPmhdonnpwf8vEVmP7HE-48" value="bill202305" style="strokeWidth=2;html=1;shape=mxgraph.flowchart.database;whiteSpace=wrap;" parent="uPmhdonnpwf8vEVmP7HE-45" vertex="1">
          <mxGeometry x="270" y="102" width="80" height="40" as="geometry" />
        </mxCell>
        <mxCell id="uPmhdonnpwf8vEVmP7HE-49" value="分表策略" style="rounded=0;whiteSpace=wrap;html=1;fontFamily=Helvetica;fontSize=12;fontColor=#000000;align=center;" parent="uPmhdonnpwf8vEVmP7HE-45" vertex="1">
          <mxGeometry x="120" y="52.5" width="80" height="60" as="geometry" />
        </mxCell>
        <mxCell id="uPmhdonnpwf8vEVmP7HE-50" value="" style="edgeStyle=orthogonalEdgeStyle;rounded=0;orthogonalLoop=1;jettySize=auto;html=1;endArrow=classic;endFill=1;entryX=0;entryY=0.5;entryDx=0;entryDy=0;entryPerimeter=0;" parent="uPmhdonnpwf8vEVmP7HE-45" target="uPmhdonnpwf8vEVmP7HE-47" edge="1">
          <mxGeometry relative="1" as="geometry">
            <mxPoint x="200" y="82" as="sourcePoint" />
            <mxPoint x="240" y="82" as="targetPoint" />
          </mxGeometry>
        </mxCell>
        <mxCell id="uPmhdonnpwf8vEVmP7HE-53" value="" style="edgeStyle=orthogonalEdgeStyle;rounded=0;orthogonalLoop=1;jettySize=auto;html=1;endArrow=classic;endFill=1;exitX=0.5;exitY=1;exitDx=0;exitDy=0;entryX=0.5;entryY=0;entryDx=0;entryDy=0;" parent="uPmhdonnpwf8vEVmP7HE-37" source="uPmhdonnpwf8vEVmP7HE-44" target="uPmhdonnpwf8vEVmP7HE-49" edge="1">
          <mxGeometry relative="1" as="geometry">
            <mxPoint x="170" y="290" as="sourcePoint" />
            <mxPoint x="230" y="290" as="targetPoint" />
            <Array as="points" />
          </mxGeometry>
        </mxCell>
        <mxCell id="uPmhdonnpwf8vEVmP7HE-54" value="" style="edgeStyle=orthogonalEdgeStyle;rounded=0;orthogonalLoop=1;jettySize=auto;html=1;endArrow=classic;endFill=1;entryX=0.5;entryY=1;entryDx=0;entryDy=0;" parent="uPmhdonnpwf8vEVmP7HE-37" source="uPmhdonnpwf8vEVmP7HE-44" target="uPmhdonnpwf8vEVmP7HE-42" edge="1">
          <mxGeometry relative="1" as="geometry">
            <mxPoint x="280" y="244" as="targetPoint" />
          </mxGeometry>
        </mxCell>
        <mxCell id="uPmhdonnpwf8vEVmP7HE-57" style="edgeStyle=orthogonalEdgeStyle;rounded=0;orthogonalLoop=1;jettySize=auto;html=1;exitX=0.5;exitY=1;exitDx=0;exitDy=0;entryX=0.5;entryY=0;entryDx=0;entryDy=0;" parent="uPmhdonnpwf8vEVmP7HE-37" source="uPmhdonnpwf8vEVmP7HE-55" target="uPmhdonnpwf8vEVmP7HE-44" edge="1">
          <mxGeometry relative="1" as="geometry" />
        </mxCell>
        <mxCell id="uPmhdonnpwf8vEVmP7HE-58" value="http/kafka" style="edgeLabel;html=1;align=center;verticalAlign=middle;resizable=0;points=[];" parent="uPmhdonnpwf8vEVmP7HE-57" vertex="1" connectable="0">
          <mxGeometry x="-0.2594" relative="1" as="geometry">
            <mxPoint as="offset" />
          </mxGeometry>
        </mxCell>
        <mxCell id="uPmhdonnpwf8vEVmP7HE-64" value="Y" style="edgeLabel;html=1;align=center;verticalAlign=middle;resizable=0;points=[];" parent="uPmhdonnpwf8vEVmP7HE-57" vertex="1" connectable="0">
          <mxGeometry x="-0.8831" y="-1" relative="1" as="geometry">
            <mxPoint as="offset" />
          </mxGeometry>
        </mxCell>
        <mxCell id="fFUdgH1w9-OMC9fza62y-1" value="&lt;div style=&quot;&quot;&gt;&lt;span style=&quot;background-color: initial;&quot;&gt;&lt;b&gt;增量同步：&lt;/b&gt;&lt;/span&gt;&lt;/div&gt;获取已签收/揽收后取消账单数据" style="strokeWidth=1;shadow=0;dashed=0;align=left;html=1;shape=mxgraph.mockup.text.stickyNote2;fontColor=#666666;mainText=;fontSize=17;whiteSpace=wrap;fillColor=#ffffcc;strokeColor=#F62E00;" parent="1" vertex="1">
          <mxGeometry x="620" y="240" width="200" height="200" as="geometry" />
        </mxCell>
      </root>
    </mxGraphModel>
  </diagram>
  <diagram name="全量同步" id="1HKuSVUm4XMBrAjjWWTS">
    <mxGraphModel dx="1341" dy="748" grid="1" gridSize="10" guides="1" tooltips="1" connect="1" arrows="1" fold="1" page="1" pageScale="1" pageWidth="1827" pageHeight="1169" math="0" shadow="0">
      <root>
        <mxCell id="tuBkKpJriEfIXOlk1lql-0" />
        <mxCell id="tuBkKpJriEfIXOlk1lql-1" parent="tuBkKpJriEfIXOlk1lql-0" />
        <mxCell id="tuBkKpJriEfIXOlk1lql-2" value="生成账单（实时同步）" style="swimlane;html=1;childLayout=stackLayout;resizeParent=1;resizeParentMax=0;horizontal=0;startSize=20;horizontalStack=0;" vertex="1" parent="tuBkKpJriEfIXOlk1lql-1">
          <mxGeometry x="120" y="120" width="480" height="550" as="geometry" />
        </mxCell>
        <mxCell id="tuBkKpJriEfIXOlk1lql-3" value="KDN-OnlineRecord&lt;br&gt;KDN后台&lt;br&gt;（3.0）" style="swimlane;html=1;startSize=20;horizontal=0;" vertex="1" parent="tuBkKpJriEfIXOlk1lql-2">
          <mxGeometry x="20" width="460" height="280" as="geometry">
            <mxRectangle x="20" width="760" height="60" as="alternateBounds" />
          </mxGeometry>
        </mxCell>
        <mxCell id="tuBkKpJriEfIXOlk1lql-4" value="" style="edgeStyle=orthogonalEdgeStyle;rounded=0;orthogonalLoop=1;jettySize=auto;html=1;" edge="1" parent="tuBkKpJriEfIXOlk1lql-3" source="tuBkKpJriEfIXOlk1lql-5" target="tuBkKpJriEfIXOlk1lql-6">
          <mxGeometry relative="1" as="geometry" />
        </mxCell>
        <mxCell id="tuBkKpJriEfIXOlk1lql-5" value="" style="ellipse;whiteSpace=wrap;html=1;" vertex="1" parent="tuBkKpJriEfIXOlk1lql-3">
          <mxGeometry x="40" y="40" width="40" height="40" as="geometry" />
        </mxCell>
        <mxCell id="nqFa1gGSp5sG5U1PI1oJ-1" value="" style="edgeStyle=orthogonalEdgeStyle;rounded=0;orthogonalLoop=1;jettySize=auto;html=1;" edge="1" parent="tuBkKpJriEfIXOlk1lql-3" source="tuBkKpJriEfIXOlk1lql-6" target="nqFa1gGSp5sG5U1PI1oJ-0">
          <mxGeometry relative="1" as="geometry" />
        </mxCell>
        <mxCell id="tuBkKpJriEfIXOlk1lql-6" value="生成账单" style="rounded=0;whiteSpace=wrap;html=1;fontFamily=Helvetica;fontSize=12;fontColor=#000000;align=center;" vertex="1" parent="tuBkKpJriEfIXOlk1lql-3">
          <mxGeometry x="120" y="30" width="80" height="60" as="geometry" />
        </mxCell>
        <mxCell id="tuBkKpJriEfIXOlk1lql-7" value="" style="ellipse;whiteSpace=wrap;html=1;" vertex="1" parent="tuBkKpJriEfIXOlk1lql-3">
          <mxGeometry x="350" y="40" width="40" height="40" as="geometry" />
        </mxCell>
        <mxCell id="nqFa1gGSp5sG5U1PI1oJ-0" value="获取已揽件未签收订单（数据分段）" style="whiteSpace=wrap;html=1;fontColor=#000000;rounded=0;" vertex="1" parent="tuBkKpJriEfIXOlk1lql-3">
          <mxGeometry x="120" y="144" width="80" height="60" as="geometry" />
        </mxCell>
        <mxCell id="tuBkKpJriEfIXOlk1lql-8" value="对账服务（4.0）" style="swimlane;html=1;startSize=20;horizontal=0;" vertex="1" parent="tuBkKpJriEfIXOlk1lql-2">
          <mxGeometry x="20" y="280" width="460" height="120" as="geometry" />
        </mxCell>
        <mxCell id="tuBkKpJriEfIXOlk1lql-9" value="生成记账单" style="rounded=0;whiteSpace=wrap;html=1;fontFamily=Helvetica;fontSize=12;fontColor=#000000;align=center;" vertex="1" parent="tuBkKpJriEfIXOlk1lql-8">
          <mxGeometry x="120" y="24" width="80" height="60" as="geometry" />
        </mxCell>
        <mxCell id="tuBkKpJriEfIXOlk1lql-10" value="对账服务DB（4.0）" style="swimlane;html=1;startSize=20;horizontal=0;" vertex="1" parent="tuBkKpJriEfIXOlk1lql-2">
          <mxGeometry x="20" y="400" width="460" height="150" as="geometry" />
        </mxCell>
        <mxCell id="tuBkKpJriEfIXOlk1lql-11" value="bill202303" style="strokeWidth=2;html=1;shape=mxgraph.flowchart.database;whiteSpace=wrap;" vertex="1" parent="tuBkKpJriEfIXOlk1lql-10">
          <mxGeometry x="270" y="10" width="79" height="50" as="geometry" />
        </mxCell>
        <mxCell id="tuBkKpJriEfIXOlk1lql-12" value="bill202304" style="strokeWidth=2;html=1;shape=mxgraph.flowchart.database;whiteSpace=wrap;" vertex="1" parent="tuBkKpJriEfIXOlk1lql-10">
          <mxGeometry x="270" y="62" width="80" height="40" as="geometry" />
        </mxCell>
        <mxCell id="tuBkKpJriEfIXOlk1lql-13" value="bill202305" style="strokeWidth=2;html=1;shape=mxgraph.flowchart.database;whiteSpace=wrap;" vertex="1" parent="tuBkKpJriEfIXOlk1lql-10">
          <mxGeometry x="270" y="102" width="80" height="40" as="geometry" />
        </mxCell>
        <mxCell id="tuBkKpJriEfIXOlk1lql-14" value="分表策略" style="rounded=0;whiteSpace=wrap;html=1;fontFamily=Helvetica;fontSize=12;fontColor=#000000;align=center;" vertex="1" parent="tuBkKpJriEfIXOlk1lql-10">
          <mxGeometry x="120" y="52.5" width="80" height="60" as="geometry" />
        </mxCell>
        <mxCell id="tuBkKpJriEfIXOlk1lql-15" value="" style="edgeStyle=orthogonalEdgeStyle;rounded=0;orthogonalLoop=1;jettySize=auto;html=1;endArrow=classic;endFill=1;entryX=0;entryY=0.5;entryDx=0;entryDy=0;entryPerimeter=0;" edge="1" parent="tuBkKpJriEfIXOlk1lql-10" target="tuBkKpJriEfIXOlk1lql-12">
          <mxGeometry relative="1" as="geometry">
            <mxPoint x="200" y="82" as="sourcePoint" />
            <mxPoint x="240" y="82" as="targetPoint" />
          </mxGeometry>
        </mxCell>
        <mxCell id="tuBkKpJriEfIXOlk1lql-16" style="edgeStyle=orthogonalEdgeStyle;rounded=0;orthogonalLoop=1;jettySize=auto;html=1;endArrow=classic;endFill=1;entryX=0.5;entryY=0;entryDx=0;entryDy=0;exitX=0.5;exitY=1;exitDx=0;exitDy=0;" edge="1" parent="tuBkKpJriEfIXOlk1lql-2" source="nqFa1gGSp5sG5U1PI1oJ-0" target="tuBkKpJriEfIXOlk1lql-9">
          <mxGeometry relative="1" as="geometry">
            <mxPoint x="310" y="210" as="sourcePoint" />
            <mxPoint x="310" y="270" as="targetPoint" />
          </mxGeometry>
        </mxCell>
        <mxCell id="tuBkKpJriEfIXOlk1lql-17" value="http/mq" style="edgeLabel;html=1;align=center;verticalAlign=middle;resizable=0;points=[];" vertex="1" connectable="0" parent="tuBkKpJriEfIXOlk1lql-16">
          <mxGeometry x="-0.2923" y="2" relative="1" as="geometry">
            <mxPoint as="offset" />
          </mxGeometry>
        </mxCell>
        <mxCell id="tuBkKpJriEfIXOlk1lql-18" value="" style="edgeStyle=orthogonalEdgeStyle;rounded=0;orthogonalLoop=1;jettySize=auto;html=1;endArrow=classic;endFill=1;exitX=0.5;exitY=1;exitDx=0;exitDy=0;entryX=0.5;entryY=0;entryDx=0;entryDy=0;" edge="1" parent="tuBkKpJriEfIXOlk1lql-2" source="tuBkKpJriEfIXOlk1lql-9" target="tuBkKpJriEfIXOlk1lql-14">
          <mxGeometry relative="1" as="geometry">
            <mxPoint x="170" y="290" as="sourcePoint" />
            <mxPoint x="230" y="290" as="targetPoint" />
            <Array as="points" />
          </mxGeometry>
        </mxCell>
        <mxCell id="tuBkKpJriEfIXOlk1lql-19" value="" style="edgeStyle=orthogonalEdgeStyle;rounded=0;orthogonalLoop=1;jettySize=auto;html=1;endArrow=classic;endFill=1;entryX=0.5;entryY=1;entryDx=0;entryDy=0;" edge="1" parent="tuBkKpJriEfIXOlk1lql-2" source="tuBkKpJriEfIXOlk1lql-9" target="tuBkKpJriEfIXOlk1lql-7">
          <mxGeometry relative="1" as="geometry">
            <mxPoint x="280" y="244" as="targetPoint" />
          </mxGeometry>
        </mxCell>
        <mxCell id="nqFa1gGSp5sG5U1PI1oJ-3" value="全量同步：&lt;br&gt;点击生成账单，将未签收但是要统计在账单里数据拉取到" style="strokeWidth=1;shadow=0;dashed=0;align=left;html=1;shape=mxgraph.mockup.text.stickyNote2;fontColor=#666666;mainText=;fontSize=17;whiteSpace=wrap;fillColor=#ffffcc;strokeColor=#F62E00;" vertex="1" parent="tuBkKpJriEfIXOlk1lql-1">
          <mxGeometry x="660" y="124" width="200" height="200" as="geometry" />
        </mxCell>
      </root>
    </mxGraphModel>
  </diagram>
  <diagram id="VSIiNz7ixIvT3FdYX_m3" name="渠道账单架构">
    <mxGraphModel dx="1118" dy="623" grid="1" gridSize="10" guides="1" tooltips="1" connect="1" arrows="1" fold="1" page="1" pageScale="1" pageWidth="2027" pageHeight="1569" math="0" shadow="0">
      <root>
        <mxCell id="0" />
        <mxCell id="1" parent="0" />
        <mxCell id="MEDfaf7UgnIksed4jdG8-18" value="" style="rounded=1;whiteSpace=wrap;html=1;dashed=1;fillColor=#f5f5f5;strokeColor=#666666;opacity=60;fontColor=#333333;" vertex="1" parent="1">
          <mxGeometry x="200" y="500" width="700" height="320" as="geometry" />
        </mxCell>
        <mxCell id="MEDfaf7UgnIksed4jdG8-15" value="" style="rounded=1;whiteSpace=wrap;html=1;dashed=1;fillColor=#dae8fc;strokeColor=#6c8ebf;opacity=60;" vertex="1" parent="1">
          <mxGeometry x="200" y="40" width="700" height="450" as="geometry" />
        </mxCell>
        <mxCell id="MEDfaf7UgnIksed4jdG8-3" style="edgeStyle=orthogonalEdgeStyle;rounded=0;orthogonalLoop=1;jettySize=auto;html=1;exitX=0.5;exitY=1;exitDx=0;exitDy=0;entryX=0.5;entryY=0;entryDx=0;entryDy=0;entryPerimeter=0;" edge="1" parent="1" source="yOzNnqJm2NuqUFLEmQpB-8" target="yOzNnqJm2NuqUFLEmQpB-10">
          <mxGeometry relative="1" as="geometry" />
        </mxCell>
        <mxCell id="yOzNnqJm2NuqUFLEmQpB-8" value="" style="rounded=0;whiteSpace=wrap;html=1;" parent="1" vertex="1">
          <mxGeometry x="260" y="160" width="600" height="90" as="geometry" />
        </mxCell>
        <mxCell id="MEDfaf7UgnIksed4jdG8-1" style="edgeStyle=orthogonalEdgeStyle;rounded=0;orthogonalLoop=1;jettySize=auto;html=1;exitX=0.5;exitY=1;exitDx=0;exitDy=0;entryX=0.5;entryY=0;entryDx=0;entryDy=0;" edge="1" parent="1" source="yOzNnqJm2NuqUFLEmQpB-2" target="yOzNnqJm2NuqUFLEmQpB-8">
          <mxGeometry relative="1" as="geometry" />
        </mxCell>
        <mxCell id="yOzNnqJm2NuqUFLEmQpB-2" value="渠道网关ng" style="rounded=0;whiteSpace=wrap;html=1;" parent="1" vertex="1">
          <mxGeometry x="260" y="70" width="600" height="50" as="geometry" />
        </mxCell>
        <mxCell id="yOzNnqJm2NuqUFLEmQpB-4" value="STO" style="rounded=0;whiteSpace=wrap;html=1;" parent="1" vertex="1">
          <mxGeometry x="296" y="200" width="120" height="40" as="geometry" />
        </mxCell>
        <mxCell id="yOzNnqJm2NuqUFLEmQpB-5" value="STO-B" style="rounded=0;whiteSpace=wrap;html=1;" parent="1" vertex="1">
          <mxGeometry x="438" y="200" width="120" height="40" as="geometry" />
        </mxCell>
        <mxCell id="yOzNnqJm2NuqUFLEmQpB-6" value="ZTO" style="rounded=0;whiteSpace=wrap;html=1;" parent="1" vertex="1">
          <mxGeometry x="581" y="200" width="120" height="40" as="geometry" />
        </mxCell>
        <mxCell id="yOzNnqJm2NuqUFLEmQpB-7" value="YTO" style="rounded=0;whiteSpace=wrap;html=1;" parent="1" vertex="1">
          <mxGeometry x="716" y="200" width="120" height="40" as="geometry" />
        </mxCell>
        <mxCell id="yOzNnqJm2NuqUFLEmQpB-9" value="渠道" style="text;html=1;strokeColor=none;fillColor=none;align=center;verticalAlign=middle;whiteSpace=wrap;rounded=0;" parent="1" vertex="1">
          <mxGeometry x="507" y="165" width="60" height="30" as="geometry" />
        </mxCell>
        <mxCell id="MEDfaf7UgnIksed4jdG8-26" style="edgeStyle=orthogonalEdgeStyle;rounded=0;orthogonalLoop=1;jettySize=auto;html=1;exitX=0.5;exitY=1;exitDx=0;exitDy=0;exitPerimeter=0;entryX=0.5;entryY=0;entryDx=0;entryDy=0;" edge="1" parent="1" source="yOzNnqJm2NuqUFLEmQpB-10" target="MEDfaf7UgnIksed4jdG8-24">
          <mxGeometry relative="1" as="geometry" />
        </mxCell>
        <mxCell id="yOzNnqJm2NuqUFLEmQpB-10" value="" style="sketch=0;points=[[0,0,0],[0.25,0,0],[0.5,0,0],[0.75,0,0],[1,0,0],[0,1,0],[0.25,1,0],[0.5,1,0],[0.75,1,0],[1,1,0],[0,0.25,0],[0,0.5,0],[0,0.75,0],[1,0.25,0],[1,0.5,0],[1,0.75,0]];outlineConnect=0;fontColor=#232F3E;gradientColor=#945DF2;gradientDirection=north;fillColor=#5A30B5;strokeColor=#ffffff;dashed=0;verticalLabelPosition=bottom;verticalAlign=top;align=center;html=1;fontSize=12;fontStyle=0;aspect=fixed;shape=mxgraph.aws4.resourceIcon;resIcon=mxgraph.aws4.managed_streaming_for_kafka;" parent="1" vertex="1">
          <mxGeometry x="532.5" y="273" width="55" height="55" as="geometry" />
        </mxCell>
        <mxCell id="yOzNnqJm2NuqUFLEmQpB-11" value="" style="rounded=0;whiteSpace=wrap;html=1;" parent="1" vertex="1">
          <mxGeometry x="260" y="414" width="600" height="45" as="geometry" />
        </mxCell>
        <mxCell id="MEDfaf7UgnIksed4jdG8-10" style="edgeStyle=orthogonalEdgeStyle;rounded=0;orthogonalLoop=1;jettySize=auto;html=1;exitX=0.5;exitY=1;exitDx=0;exitDy=0;entryX=0.5;entryY=0;entryDx=0;entryDy=0;" edge="1" parent="1" source="MEDfaf7UgnIksed4jdG8-5" target="MEDfaf7UgnIksed4jdG8-7">
          <mxGeometry relative="1" as="geometry" />
        </mxCell>
        <mxCell id="MEDfaf7UgnIksed4jdG8-5" value="oneproxy（4.0网关）" style="rounded=0;whiteSpace=wrap;html=1;" vertex="1" parent="1">
          <mxGeometry x="260" y="510" width="600" height="50" as="geometry" />
        </mxCell>
        <mxCell id="MEDfaf7UgnIksed4jdG8-38" style="edgeStyle=orthogonalEdgeStyle;rounded=0;orthogonalLoop=1;jettySize=auto;html=1;exitX=0.5;exitY=1;exitDx=0;exitDy=0;entryX=0.5;entryY=0;entryDx=0;entryDy=0;" edge="1" parent="1" source="MEDfaf7UgnIksed4jdG8-7" target="MEDfaf7UgnIksed4jdG8-34">
          <mxGeometry relative="1" as="geometry" />
        </mxCell>
        <mxCell id="MEDfaf7UgnIksed4jdG8-7" value="" style="rounded=0;whiteSpace=wrap;html=1;" vertex="1" parent="1">
          <mxGeometry x="260" y="610" width="600" height="90" as="geometry" />
        </mxCell>
        <mxCell id="MEDfaf7UgnIksed4jdG8-8" value="微服务" style="text;html=1;strokeColor=none;fillColor=none;align=center;verticalAlign=middle;whiteSpace=wrap;rounded=0;" vertex="1" parent="1">
          <mxGeometry x="521" y="620" width="60" height="30" as="geometry" />
        </mxCell>
        <mxCell id="MEDfaf7UgnIksed4jdG8-32" style="edgeStyle=orthogonalEdgeStyle;rounded=0;orthogonalLoop=1;jettySize=auto;html=1;exitX=1;exitY=0.5;exitDx=0;exitDy=0;entryX=0;entryY=0.5;entryDx=0;entryDy=0;entryPerimeter=0;" edge="1" parent="1" source="MEDfaf7UgnIksed4jdG8-9" target="MEDfaf7UgnIksed4jdG8-30">
          <mxGeometry relative="1" as="geometry" />
        </mxCell>
        <mxCell id="MEDfaf7UgnIksed4jdG8-9" value="账单服务" style="rounded=0;whiteSpace=wrap;html=1;" vertex="1" parent="1">
          <mxGeometry x="491" y="650" width="120" height="40" as="geometry" />
        </mxCell>
        <mxCell id="MEDfaf7UgnIksed4jdG8-11" value="" style="shape=flexArrow;endArrow=classic;html=1;rounded=0;" edge="1" parent="1">
          <mxGeometry width="50" height="50" relative="1" as="geometry">
            <mxPoint x="360" y="464" as="sourcePoint" />
            <mxPoint x="360" y="504" as="targetPoint" />
          </mxGeometry>
        </mxCell>
        <mxCell id="MEDfaf7UgnIksed4jdG8-12" value="" style="shape=flexArrow;endArrow=classic;html=1;rounded=0;" edge="1" parent="1">
          <mxGeometry width="50" height="50" relative="1" as="geometry">
            <mxPoint x="558" y="464" as="sourcePoint" />
            <mxPoint x="558" y="504" as="targetPoint" />
          </mxGeometry>
        </mxCell>
        <mxCell id="MEDfaf7UgnIksed4jdG8-13" value="" style="shape=flexArrow;endArrow=classic;html=1;rounded=0;" edge="1" parent="1">
          <mxGeometry width="50" height="50" relative="1" as="geometry">
            <mxPoint x="770" y="465" as="sourcePoint" />
            <mxPoint x="770" y="505" as="targetPoint" />
          </mxGeometry>
        </mxCell>
        <mxCell id="MEDfaf7UgnIksed4jdG8-17" value="" style="ellipse;shape=cloud;whiteSpace=wrap;html=1;" vertex="1" parent="1">
          <mxGeometry x="700" y="285" width="120" height="80" as="geometry" />
        </mxCell>
        <mxCell id="MEDfaf7UgnIksed4jdG8-16" value="&lt;font style=&quot;font-size: 19px;&quot;&gt;KDN3.0&lt;/font&gt;" style="text;html=1;strokeColor=none;fillColor=none;align=center;verticalAlign=middle;whiteSpace=wrap;rounded=0;" vertex="1" parent="1">
          <mxGeometry x="730" y="310" width="60" height="30" as="geometry" />
        </mxCell>
        <mxCell id="MEDfaf7UgnIksed4jdG8-20" value="" style="ellipse;shape=cloud;whiteSpace=wrap;html=1;" vertex="1" parent="1">
          <mxGeometry x="860" y="560" width="120" height="80" as="geometry" />
        </mxCell>
        <mxCell id="MEDfaf7UgnIksed4jdG8-21" value="&lt;font style=&quot;font-size: 19px;&quot;&gt;KDN4.0&lt;/font&gt;" style="text;html=1;strokeColor=none;fillColor=none;align=center;verticalAlign=middle;whiteSpace=wrap;rounded=0;" vertex="1" parent="1">
          <mxGeometry x="890" y="585" width="60" height="30" as="geometry" />
        </mxCell>
        <mxCell id="MEDfaf7UgnIksed4jdG8-22" value="&lt;div style=&quot;text-align: left;&quot;&gt;&lt;span style=&quot;background-color: initial;&quot;&gt;功能：&lt;/span&gt;&lt;/div&gt;1、数据同步（签收、取消、拉取账单）&lt;br&gt;&lt;div style=&quot;text-align: left;&quot;&gt;&lt;span style=&quot;background-color: initial;&quot;&gt;2、查询账单（分页）&lt;/span&gt;&lt;/div&gt;&lt;div style=&quot;text-align: left;&quot;&gt;&lt;span style=&quot;background-color: initial;&quot;&gt;3、计算优惠（折后）&lt;/span&gt;&lt;/div&gt;&lt;div style=&quot;text-align: left;&quot;&gt;通讯方式：&lt;/div&gt;&lt;div style=&quot;text-align: left;&quot;&gt;http&lt;/div&gt;" style="strokeWidth=1;shadow=0;dashed=0;align=center;html=1;shape=mxgraph.mockup.text.stickyNote2;fontColor=#666666;mainText=;fontSize=17;whiteSpace=wrap;fillColor=#ffffcc;strokeColor=#F62E00;" vertex="1" parent="1">
          <mxGeometry x="990" y="290" width="200" height="200" as="geometry" />
        </mxCell>
        <mxCell id="MEDfaf7UgnIksed4jdG8-23" value="" style="curved=1;endArrow=classic;html=1;rounded=0;" edge="1" parent="1" target="MEDfaf7UgnIksed4jdG8-22">
          <mxGeometry width="50" height="50" relative="1" as="geometry">
            <mxPoint x="820" y="490" as="sourcePoint" />
            <mxPoint x="870" y="440" as="targetPoint" />
            <Array as="points">
              <mxPoint x="870" y="490" />
              <mxPoint x="950" y="470" />
              <mxPoint x="820" y="440" />
            </Array>
          </mxGeometry>
        </mxCell>
        <mxCell id="MEDfaf7UgnIksed4jdG8-25" style="edgeStyle=orthogonalEdgeStyle;rounded=0;orthogonalLoop=1;jettySize=auto;html=1;exitX=0.5;exitY=1;exitDx=0;exitDy=0;entryX=0.5;entryY=0;entryDx=0;entryDy=0;" edge="1" parent="1" source="MEDfaf7UgnIksed4jdG8-24" target="yOzNnqJm2NuqUFLEmQpB-11">
          <mxGeometry relative="1" as="geometry" />
        </mxCell>
        <mxCell id="MEDfaf7UgnIksed4jdG8-24" value="账单SDK" style="rounded=0;whiteSpace=wrap;html=1;" vertex="1" parent="1">
          <mxGeometry x="500" y="351" width="120" height="40" as="geometry" />
        </mxCell>
        <mxCell id="MEDfaf7UgnIksed4jdG8-27" value="onlinerecord" style="rounded=0;whiteSpace=wrap;html=1;" vertex="1" parent="1">
          <mxGeometry x="311" y="421" width="90" height="31" as="geometry" />
        </mxCell>
        <mxCell id="MEDfaf7UgnIksed4jdG8-28" value="kdniao-order-admin" style="rounded=0;whiteSpace=wrap;html=1;" vertex="1" parent="1">
          <mxGeometry x="500" y="421" width="115" height="31" as="geometry" />
        </mxCell>
        <mxCell id="MEDfaf7UgnIksed4jdG8-29" value="kdniaomonitor" style="rounded=0;whiteSpace=wrap;html=1;" vertex="1" parent="1">
          <mxGeometry x="715" y="421" width="90" height="31" as="geometry" />
        </mxCell>
        <mxCell id="MEDfaf7UgnIksed4jdG8-30" value="账单数据" style="strokeWidth=2;html=1;shape=mxgraph.flowchart.database;whiteSpace=wrap;" vertex="1" parent="1">
          <mxGeometry x="751" y="645" width="50" height="50" as="geometry" />
        </mxCell>
        <mxCell id="MEDfaf7UgnIksed4jdG8-33" value="账单数据" style="strokeWidth=2;html=1;shape=mxgraph.flowchart.database;whiteSpace=wrap;" vertex="1" parent="1">
          <mxGeometry x="805" y="645" width="50" height="50" as="geometry" />
        </mxCell>
        <mxCell id="MEDfaf7UgnIksed4jdG8-34" value="" style="rounded=0;whiteSpace=wrap;html=1;" vertex="1" parent="1">
          <mxGeometry x="260" y="730" width="600" height="50" as="geometry" />
        </mxCell>
        <mxCell id="MEDfaf7UgnIksed4jdG8-35" value="记帐" style="rounded=0;whiteSpace=wrap;html=1;" vertex="1" parent="1">
          <mxGeometry x="390" y="739.5" width="90" height="31" as="geometry" />
        </mxCell>
        <mxCell id="MEDfaf7UgnIksed4jdG8-36" value="对账" style="rounded=0;whiteSpace=wrap;html=1;" vertex="1" parent="1">
          <mxGeometry x="512.5" y="739.5" width="90" height="31" as="geometry" />
        </mxCell>
        <mxCell id="MEDfaf7UgnIksed4jdG8-37" value="查询" style="rounded=0;whiteSpace=wrap;html=1;" vertex="1" parent="1">
          <mxGeometry x="640" y="739.5" width="90" height="31" as="geometry" />
        </mxCell>
        <mxCell id="MEDfaf7UgnIksed4jdG8-39" value="应用" style="text;html=1;strokeColor=none;fillColor=none;align=center;verticalAlign=middle;whiteSpace=wrap;rounded=0;" vertex="1" parent="1">
          <mxGeometry x="270" y="645" width="60" height="30" as="geometry" />
        </mxCell>
        <mxCell id="MEDfaf7UgnIksed4jdG8-40" value="支撑" style="text;html=1;strokeColor=none;fillColor=none;align=center;verticalAlign=middle;whiteSpace=wrap;rounded=0;" vertex="1" parent="1">
          <mxGeometry x="270" y="739.5" width="60" height="30" as="geometry" />
        </mxCell>
      </root>
    </mxGraphModel>
  </diagram>
  <diagram id="ayVCqHzTElAKx9Hr5XIK" name="第 4 页">
    <mxGraphModel dx="899" dy="608" grid="1" gridSize="10" guides="1" tooltips="1" connect="1" arrows="1" fold="1" page="1" pageScale="1" pageWidth="1827" pageHeight="1169" math="0" shadow="0">
      <root>
        <mxCell id="0" />
        <mxCell id="1" parent="0" />
        <mxCell id="C6J76EfyK5jAzuscgDF2-5" value="" style="edgeStyle=orthogonalEdgeStyle;rounded=0;orthogonalLoop=1;jettySize=auto;html=1;" parent="1" source="C6J76EfyK5jAzuscgDF2-1" target="C6J76EfyK5jAzuscgDF2-4" edge="1">
          <mxGeometry relative="1" as="geometry" />
        </mxCell>
        <mxCell id="C6J76EfyK5jAzuscgDF2-9" value="" style="edgeStyle=orthogonalEdgeStyle;rounded=0;orthogonalLoop=1;jettySize=auto;html=1;entryX=1;entryY=0.5;entryDx=0;entryDy=0;" parent="1" source="C6J76EfyK5jAzuscgDF2-1" target="C6J76EfyK5jAzuscgDF2-8" edge="1">
          <mxGeometry relative="1" as="geometry" />
        </mxCell>
        <mxCell id="C6J76EfyK5jAzuscgDF2-1" value="获取结算渠道" style="rounded=1;whiteSpace=wrap;html=1;" parent="1" vertex="1">
          <mxGeometry x="490" y="180" width="120" height="60" as="geometry" />
        </mxCell>
        <mxCell id="C6J76EfyK5jAzuscgDF2-3" style="edgeStyle=orthogonalEdgeStyle;rounded=0;orthogonalLoop=1;jettySize=auto;html=1;exitX=0.5;exitY=1;exitDx=0;exitDy=0;" parent="1" source="C6J76EfyK5jAzuscgDF2-2" target="C6J76EfyK5jAzuscgDF2-1" edge="1">
          <mxGeometry relative="1" as="geometry" />
        </mxCell>
        <mxCell id="C6J76EfyK5jAzuscgDF2-2" value="start" style="ellipse;whiteSpace=wrap;html=1;aspect=fixed;" parent="1" vertex="1">
          <mxGeometry x="530" y="90" width="40" height="40" as="geometry" />
        </mxCell>
        <mxCell id="C6J76EfyK5jAzuscgDF2-7" value="" style="edgeStyle=orthogonalEdgeStyle;rounded=0;orthogonalLoop=1;jettySize=auto;html=1;" parent="1" source="C6J76EfyK5jAzuscgDF2-4" target="C6J76EfyK5jAzuscgDF2-6" edge="1">
          <mxGeometry relative="1" as="geometry" />
        </mxCell>
        <mxCell id="C6J76EfyK5jAzuscgDF2-11" value="" style="edgeStyle=orthogonalEdgeStyle;rounded=0;orthogonalLoop=1;jettySize=auto;html=1;" parent="1" source="C6J76EfyK5jAzuscgDF2-4" target="C6J76EfyK5jAzuscgDF2-10" edge="1">
          <mxGeometry relative="1" as="geometry" />
        </mxCell>
        <mxCell id="C6J76EfyK5jAzuscgDF2-4" value="获取updateTime&amp;gt;D-1的订单数据（数据分批）" style="whiteSpace=wrap;html=1;rounded=1;" parent="1" vertex="1">
          <mxGeometry x="490" y="289" width="120" height="60" as="geometry" />
        </mxCell>
        <mxCell id="lUwAHWwm80oPqygNYq7S-4" value="" style="edgeStyle=orthogonalEdgeStyle;rounded=0;orthogonalLoop=1;jettySize=auto;html=1;" parent="1" source="C6J76EfyK5jAzuscgDF2-6" target="lUwAHWwm80oPqygNYq7S-3" edge="1">
          <mxGeometry relative="1" as="geometry" />
        </mxCell>
        <mxCell id="C6J76EfyK5jAzuscgDF2-6" value="根据订单获取地址、重量、费用" style="whiteSpace=wrap;html=1;rounded=1;" parent="1" vertex="1">
          <mxGeometry x="490" y="390" width="120" height="60" as="geometry" />
        </mxCell>
        <mxCell id="C6J76EfyK5jAzuscgDF2-8" value="&lt;pre style=&quot;background-color: rgb(43, 43, 43); color: rgb(169, 183, 198); font-family: &amp;quot;JetBrains Mono&amp;quot;, monospace;&quot;&gt;&lt;pre style=&quot;font-family: &amp;quot;JetBrains Mono&amp;quot;, monospace;&quot;&gt;&lt;font style=&quot;font-size: 6px;&quot;&gt;select c.*&lt;br&gt;from or_appointment_channel c&lt;br&gt;    &lt;span style=&quot;color: rgb(204, 120, 50);&quot;&gt;left join &lt;/span&gt;or_appointment_channel_config&lt;/font&gt;&lt;/pre&gt;&lt;pre style=&quot;font-family: &amp;quot;JetBrains Mono&amp;quot;, monospace;&quot;&gt;&lt;font style=&quot;font-size: 6px;&quot;&gt; cc &lt;span style=&quot;color: rgb(204, 120, 50);&quot;&gt;on &lt;/span&gt;c.&lt;span style=&quot;color: rgb(152, 118, 170);&quot;&gt;id &lt;/span&gt;= cc.&lt;span style=&quot;color: rgb(152, 118, 170);&quot;&gt;channel_id&lt;br&gt;&lt;/span&gt;&lt;span style=&quot;color: rgb(204, 120, 50);&quot;&gt;where &lt;/span&gt;cc.&lt;span style=&quot;color: rgb(152, 118, 170);&quot;&gt;settlement_node &lt;/span&gt;&lt;span style=&quot;color: rgb(204, 120, 50);&quot;&gt;is not null &lt;/span&gt;&lt;/font&gt;&lt;/pre&gt;&lt;/pre&gt;" style="shape=document;whiteSpace=wrap;html=1;boundedLbl=1;rounded=1;align=left;size=0.3125;" parent="1" vertex="1">
          <mxGeometry x="60" y="70" width="160" height="60" as="geometry" />
        </mxCell>
        <mxCell id="C6J76EfyK5jAzuscgDF2-10" value="&lt;pre style=&quot;background-color: rgb(43, 43, 43); color: rgb(169, 183, 198); font-family: &amp;quot;JetBrains Mono&amp;quot;, monospace;&quot;&gt;&lt;font style=&quot;font-size: 6px;&quot;&gt;# &lt;span style=&quot;color: rgb(128, 128, 128); font-family: 宋体, monospace;&quot;&gt;揽件结算&lt;br&gt;&lt;/span&gt;&lt;span style=&quot;color: rgb(204, 120, 50);&quot;&gt;select &lt;/span&gt;&lt;span style=&quot;color: rgb(152, 118, 170);&quot;&gt;kdn_order_code&lt;br&gt;&lt;/span&gt;&lt;span style=&quot;color: rgb(204, 120, 50);&quot;&gt;from &lt;/span&gt;or_appointment_order&lt;br&gt;&lt;span style=&quot;color: rgb(204, 120, 50);&quot;&gt;where &lt;/span&gt;&lt;span style=&quot;color: rgb(152, 118, 170);&quot;&gt;order_state &lt;/span&gt;&lt;span style=&quot;color: rgb(204, 120, 50);&quot;&gt;in &lt;/span&gt;(&lt;span style=&quot;color: rgb(104, 151, 187);&quot;&gt;301&lt;/span&gt;&lt;span style=&quot;color: rgb(204, 120, 50);&quot;&gt;, &lt;/span&gt;&lt;span style=&quot;color: rgb(104, 151, 187);&quot;&gt;1&lt;/span&gt;&lt;span style=&quot;color: rgb(204, 120, 50);&quot;&gt;, &lt;/span&gt;&lt;span style=&quot;color: rgb(104, 151, 187);&quot;&gt;2&lt;/span&gt;&lt;span style=&quot;color: rgb(204, 120, 50);&quot;&gt;, &lt;/span&gt;&lt;span style=&quot;color: rgb(104, 151, 187);&quot;&gt;3&lt;/span&gt;&lt;span style=&quot;color: rgb(204, 120, 50);&quot;&gt;, &lt;/span&gt;&lt;span style=&quot;color: rgb(104, 151, 187);&quot;&gt;4&lt;/span&gt;)&lt;br&gt;  &lt;span style=&quot;color: rgb(204, 120, 50);&quot;&gt;and &lt;/span&gt;&lt;span style=&quot;color: rgb(255, 198, 109); font-style: italic;&quot;&gt;TO_DAYS&lt;/span&gt;(&lt;span style=&quot;color: rgb(255, 198, 109); font-style: italic;&quot;&gt;NOW&lt;/span&gt;()) - &lt;span style=&quot;color: rgb(255, 198, 109); font-style: italic;&quot;&gt;TO_DAYS&lt;/span&gt;(&lt;span style=&quot;color: rgb(152, 118, 170);&quot;&gt;update_time&lt;/span&gt;) = &lt;span style=&quot;color: rgb(104, 151, 187);&quot;&gt;1&lt;br&gt;&lt;/span&gt;&lt;span style=&quot;color: rgb(204, 120, 50);&quot;&gt;;&lt;br&gt;&lt;/span&gt;&lt;span style=&quot;color: rgb(204, 120, 50);&quot;&gt;&lt;br&gt;&lt;/span&gt;&lt;span style=&quot;color: rgb(128, 128, 128);&quot;&gt;# &lt;/span&gt;&lt;span style=&quot;color: rgb(128, 128, 128); font-family: 宋体, monospace;&quot;&gt;签收结算&lt;br&gt;&lt;/span&gt;&lt;span style=&quot;color: rgb(204, 120, 50);&quot;&gt;select &lt;/span&gt;&lt;span style=&quot;color: rgb(152, 118, 170);&quot;&gt;kdn_order_code&lt;br&gt;&lt;/span&gt;&lt;span style=&quot;color: rgb(204, 120, 50);&quot;&gt;from &lt;/span&gt;or_appointment_order&lt;br&gt;&lt;span style=&quot;color: rgb(204, 120, 50);&quot;&gt;where &lt;/span&gt;&lt;span style=&quot;color: rgb(152, 118, 170);&quot;&gt;order_state &lt;/span&gt;= &lt;span style=&quot;color: rgb(104, 151, 187);&quot;&gt;3&lt;br&gt;&lt;/span&gt;&lt;span style=&quot;color: rgb(104, 151, 187);&quot;&gt;  &lt;/span&gt;&lt;span style=&quot;color: rgb(204, 120, 50);&quot;&gt;and &lt;/span&gt;&lt;span style=&quot;color: rgb(255, 198, 109); font-style: italic;&quot;&gt;TO_DAYS&lt;/span&gt;(&lt;span style=&quot;color: rgb(255, 198, 109); font-style: italic;&quot;&gt;NOW&lt;/span&gt;()) - &lt;span style=&quot;color: rgb(255, 198, 109); font-style: italic;&quot;&gt;TO_DAYS&lt;/span&gt;(&lt;span style=&quot;color: rgb(152, 118, 170);&quot;&gt;update_time&lt;/span&gt;) = &lt;span style=&quot;color: rgb(104, 151, 187);&quot;&gt;1&lt;br&gt;&lt;/span&gt;&lt;span style=&quot;color: rgb(204, 120, 50);&quot;&gt;;&lt;/span&gt;&lt;/font&gt;&lt;/pre&gt;" style="shape=document;whiteSpace=wrap;html=1;boundedLbl=1;rounded=1;" parent="1" vertex="1">
          <mxGeometry x="60" y="279" width="250" height="80" as="geometry" />
        </mxCell>
        <mxCell id="lUwAHWwm80oPqygNYq7S-6" value="" style="edgeStyle=orthogonalEdgeStyle;rounded=0;orthogonalLoop=1;jettySize=auto;html=1;" parent="1" source="lUwAHWwm80oPqygNYq7S-3" target="lUwAHWwm80oPqygNYq7S-5" edge="1">
          <mxGeometry relative="1" as="geometry" />
        </mxCell>
        <mxCell id="lUwAHWwm80oPqygNYq7S-3" value="Topic：async_bill_detail_data" style="whiteSpace=wrap;html=1;rounded=1;" parent="1" vertex="1">
          <mxGeometry x="690" y="390" width="120" height="60" as="geometry" />
        </mxCell>
        <mxCell id="lUwAHWwm80oPqygNYq7S-8" value="" style="edgeStyle=orthogonalEdgeStyle;rounded=0;orthogonalLoop=1;jettySize=auto;html=1;" parent="1" source="lUwAHWwm80oPqygNYq7S-5" target="lUwAHWwm80oPqygNYq7S-7" edge="1">
          <mxGeometry relative="1" as="geometry" />
        </mxCell>
        <mxCell id="lUwAHWwm80oPqygNYq7S-5" value="Restful:&lt;br&gt;asyncBillDetailData" style="whiteSpace=wrap;html=1;rounded=1;" parent="1" vertex="1">
          <mxGeometry x="890" y="390" width="120" height="60" as="geometry" />
        </mxCell>
        <mxCell id="lUwAHWwm80oPqygNYq7S-7" value="end" style="ellipse;whiteSpace=wrap;html=1;rounded=1;" parent="1" vertex="1">
          <mxGeometry x="1110" y="380" width="80" height="80" as="geometry" />
        </mxCell>
      </root>
    </mxGraphModel>
  </diagram>
  <diagram id="Zi9GfsEhwuq5qVUaGOXR" name="生成对账单">
    <mxGraphModel dx="1726" dy="608" grid="1" gridSize="10" guides="1" tooltips="1" connect="1" arrows="1" fold="1" page="1" pageScale="1" pageWidth="827" pageHeight="1169" math="0" shadow="0">
      <root>
        <mxCell id="0" />
        <mxCell id="1" parent="0" />
        <mxCell id="2Br4TytrVV8Ecjph-AEg-13" style="edgeStyle=orthogonalEdgeStyle;rounded=0;orthogonalLoop=1;jettySize=auto;html=1;exitX=0.5;exitY=1;exitDx=0;exitDy=0;entryX=0.5;entryY=0;entryDx=0;entryDy=0;labelBackgroundColor=none;strokeColor=#09555B;fontColor=default;" edge="1" parent="1" source="2Br4TytrVV8Ecjph-AEg-2" target="2Br4TytrVV8Ecjph-AEg-5">
          <mxGeometry relative="1" as="geometry" />
        </mxCell>
        <mxCell id="2Br4TytrVV8Ecjph-AEg-2" value="配置任务" style="rounded=1;whiteSpace=wrap;html=1;fontSize=12;glass=0;strokeWidth=1;shadow=0;labelBackgroundColor=none;fillColor=#FAD9D5;strokeColor=#D0CEE2;fontColor=#1A1A1A;" vertex="1" parent="1">
          <mxGeometry x="240" y="110" width="120" height="40" as="geometry" />
        </mxCell>
        <mxCell id="2Br4TytrVV8Ecjph-AEg-12" style="edgeStyle=orthogonalEdgeStyle;rounded=0;orthogonalLoop=1;jettySize=auto;html=1;exitX=1;exitY=0.5;exitDx=0;exitDy=0;entryX=1;entryY=0.5;entryDx=0;entryDy=0;labelBackgroundColor=none;strokeColor=#09555B;fontColor=default;" edge="1" parent="1" source="2Br4TytrVV8Ecjph-AEg-5" target="2Br4TytrVV8Ecjph-AEg-27">
          <mxGeometry relative="1" as="geometry">
            <mxPoint x="400" y="240" as="targetPoint" />
            <Array as="points">
              <mxPoint x="450" y="240" />
              <mxPoint x="450" y="653" />
            </Array>
          </mxGeometry>
        </mxCell>
        <mxCell id="2Br4TytrVV8Ecjph-AEg-32" value="NO" style="edgeLabel;html=1;align=center;verticalAlign=middle;resizable=0;points=[];labelBackgroundColor=none;fontColor=#1A1A1A;" vertex="1" connectable="0" parent="2Br4TytrVV8Ecjph-AEg-12">
          <mxGeometry x="-0.9017" y="1" relative="1" as="geometry">
            <mxPoint as="offset" />
          </mxGeometry>
        </mxCell>
        <mxCell id="2Br4TytrVV8Ecjph-AEg-16" value="YES" style="edgeStyle=orthogonalEdgeStyle;rounded=0;orthogonalLoop=1;jettySize=auto;html=1;exitX=0.5;exitY=1;exitDx=0;exitDy=0;entryX=0.5;entryY=0;entryDx=0;entryDy=0;labelBackgroundColor=none;strokeColor=#09555B;fontColor=default;" edge="1" parent="1" source="2Br4TytrVV8Ecjph-AEg-5" target="2Br4TytrVV8Ecjph-AEg-17">
          <mxGeometry relative="1" as="geometry">
            <mxPoint x="300" y="320" as="targetPoint" />
          </mxGeometry>
        </mxCell>
        <mxCell id="2Br4TytrVV8Ecjph-AEg-5" value="满足cron？" style="rhombus;whiteSpace=wrap;html=1;shadow=0;fontFamily=Helvetica;fontSize=12;align=center;strokeWidth=1;spacing=6;spacingTop=-4;labelBackgroundColor=none;fillColor=#d5e8d4;strokeColor=#82b366;" vertex="1" parent="1">
          <mxGeometry x="250" y="200" width="100" height="80" as="geometry" />
        </mxCell>
        <mxCell id="2Br4TytrVV8Ecjph-AEg-21" style="edgeStyle=orthogonalEdgeStyle;rounded=0;orthogonalLoop=1;jettySize=auto;html=1;exitX=1;exitY=0.5;exitDx=0;exitDy=0;labelBackgroundColor=none;strokeColor=#09555B;fontColor=default;" edge="1" parent="1" source="2Br4TytrVV8Ecjph-AEg-10" target="2Br4TytrVV8Ecjph-AEg-20">
          <mxGeometry relative="1" as="geometry" />
        </mxCell>
        <mxCell id="2Br4TytrVV8Ecjph-AEg-25" style="edgeStyle=orthogonalEdgeStyle;rounded=0;orthogonalLoop=1;jettySize=auto;html=1;exitX=0.5;exitY=1;exitDx=0;exitDy=0;entryX=0.5;entryY=0;entryDx=0;entryDy=0;labelBackgroundColor=none;strokeColor=#09555B;fontColor=default;" edge="1" parent="1" source="2Br4TytrVV8Ecjph-AEg-10" target="2Br4TytrVV8Ecjph-AEg-19">
          <mxGeometry relative="1" as="geometry" />
        </mxCell>
        <mxCell id="2Br4TytrVV8Ecjph-AEg-10" value="生成预对账单" style="rounded=1;whiteSpace=wrap;html=1;fontSize=12;glass=0;strokeWidth=1;shadow=0;labelBackgroundColor=none;fillColor=#FAD9D5;strokeColor=#D0CEE2;fontColor=#1A1A1A;" vertex="1" parent="1">
          <mxGeometry x="240" y="440" width="120" height="40" as="geometry" />
        </mxCell>
        <mxCell id="2Br4TytrVV8Ecjph-AEg-15" value="1、半月&lt;br&gt;2、按月&lt;br&gt;3、按季度" style="shape=document;whiteSpace=wrap;html=1;boundedLbl=1;labelBackgroundColor=none;fillColor=#fff2cc;strokeColor=#d6b656;" vertex="1" parent="1">
          <mxGeometry x="40" y="317" width="120" height="80" as="geometry" />
        </mxCell>
        <mxCell id="2Br4TytrVV8Ecjph-AEg-18" style="edgeStyle=orthogonalEdgeStyle;rounded=0;orthogonalLoop=1;jettySize=auto;html=1;exitX=0;exitY=0.5;exitDx=0;exitDy=0;entryX=1.003;entryY=0.404;entryDx=0;entryDy=0;entryPerimeter=0;labelBackgroundColor=none;strokeColor=#09555B;fontColor=default;" edge="1" parent="1" source="2Br4TytrVV8Ecjph-AEg-17" target="2Br4TytrVV8Ecjph-AEg-15">
          <mxGeometry relative="1" as="geometry" />
        </mxCell>
        <mxCell id="2Br4TytrVV8Ecjph-AEg-22" style="edgeStyle=orthogonalEdgeStyle;rounded=0;orthogonalLoop=1;jettySize=auto;html=1;exitX=0.5;exitY=1;exitDx=0;exitDy=0;entryX=0.5;entryY=0;entryDx=0;entryDy=0;labelBackgroundColor=none;strokeColor=#09555B;fontColor=default;" edge="1" parent="1" source="2Br4TytrVV8Ecjph-AEg-17" target="2Br4TytrVV8Ecjph-AEg-10">
          <mxGeometry relative="1" as="geometry" />
        </mxCell>
        <mxCell id="2Br4TytrVV8Ecjph-AEg-17" value="获取渠道配置" style="rounded=1;whiteSpace=wrap;html=1;fontSize=12;glass=0;strokeWidth=1;shadow=0;labelBackgroundColor=none;fillColor=#FAD9D5;strokeColor=#D0CEE2;fontColor=#1A1A1A;" vertex="1" parent="1">
          <mxGeometry x="240" y="330" width="120" height="40" as="geometry" />
        </mxCell>
        <mxCell id="2Br4TytrVV8Ecjph-AEg-24" style="edgeStyle=orthogonalEdgeStyle;rounded=0;orthogonalLoop=1;jettySize=auto;html=1;exitX=0;exitY=0.5;exitDx=0;exitDy=0;entryX=1;entryY=0.5;entryDx=0;entryDy=0;labelBackgroundColor=none;strokeColor=#09555B;fontColor=default;" edge="1" parent="1" source="2Br4TytrVV8Ecjph-AEg-19" target="2Br4TytrVV8Ecjph-AEg-23">
          <mxGeometry relative="1" as="geometry" />
        </mxCell>
        <mxCell id="2Br4TytrVV8Ecjph-AEg-28" value="" style="edgeStyle=orthogonalEdgeStyle;rounded=0;orthogonalLoop=1;jettySize=auto;html=1;labelBackgroundColor=none;strokeColor=#09555B;fontColor=default;" edge="1" parent="1" source="2Br4TytrVV8Ecjph-AEg-19" target="2Br4TytrVV8Ecjph-AEg-27">
          <mxGeometry relative="1" as="geometry" />
        </mxCell>
        <mxCell id="2Br4TytrVV8Ecjph-AEg-19" value="更新账单生效状态" style="rounded=1;whiteSpace=wrap;html=1;fontSize=12;glass=0;strokeWidth=1;shadow=0;labelBackgroundColor=none;fillColor=#FAD9D5;strokeColor=#D0CEE2;fontColor=#1A1A1A;" vertex="1" parent="1">
          <mxGeometry x="240" y="545" width="120" height="40" as="geometry" />
        </mxCell>
        <mxCell id="2Br4TytrVV8Ecjph-AEg-20" value="1、获取某渠道且账单范围结束时间大于当前时间的对账单&lt;br&gt;2、List≤2，生成当前账单或下个周期账单" style="shape=document;whiteSpace=wrap;html=1;boundedLbl=1;align=left;labelBackgroundColor=none;fillColor=#fff2cc;strokeColor=#d6b656;" vertex="1" parent="1">
          <mxGeometry x="480" y="420" width="180" height="80" as="geometry" />
        </mxCell>
        <mxCell id="2Br4TytrVV8Ecjph-AEg-23" value="1、是当前对账单，且状态为未生效" style="shape=document;whiteSpace=wrap;html=1;boundedLbl=1;align=left;labelBackgroundColor=none;fillColor=#fff2cc;strokeColor=#d6b656;" vertex="1" parent="1">
          <mxGeometry x="-10" y="525" width="180" height="80" as="geometry" />
        </mxCell>
        <mxCell id="2Br4TytrVV8Ecjph-AEg-27" value="END" style="ellipse;whiteSpace=wrap;html=1;rounded=1;glass=0;strokeWidth=1;shadow=0;labelBackgroundColor=none;fillColor=#dae8fc;strokeColor=#6c8ebf;" vertex="1" parent="1">
          <mxGeometry x="275" y="630" width="50" height="45" as="geometry" />
        </mxCell>
        <mxCell id="2Br4TytrVV8Ecjph-AEg-31" style="edgeStyle=orthogonalEdgeStyle;rounded=0;orthogonalLoop=1;jettySize=auto;html=1;exitX=0.5;exitY=1;exitDx=0;exitDy=0;labelBackgroundColor=none;strokeColor=#09555B;fontColor=default;" edge="1" parent="1" source="2Br4TytrVV8Ecjph-AEg-29" target="2Br4TytrVV8Ecjph-AEg-2">
          <mxGeometry relative="1" as="geometry" />
        </mxCell>
        <mxCell id="2Br4TytrVV8Ecjph-AEg-29" value="START" style="ellipse;whiteSpace=wrap;html=1;rounded=1;glass=0;strokeWidth=1;shadow=0;labelBackgroundColor=none;fillColor=#dae8fc;strokeColor=#6c8ebf;" vertex="1" parent="1">
          <mxGeometry x="280" y="24" width="40" height="40" as="geometry" />
        </mxCell>
      </root>
    </mxGraphModel>
  </diagram>
  <diagram id="xmsE27FDibeoWT3eY-SW" name="修改渠道账单周期">
    <mxGraphModel dx="899" dy="608" grid="1" gridSize="10" guides="1" tooltips="1" connect="1" arrows="1" fold="1" page="1" pageScale="1" pageWidth="827" pageHeight="1169" math="0" shadow="0">
      <root>
        <mxCell id="0" />
        <mxCell id="1" parent="0" />
        <mxCell id="2noe1_d6BOTrs1J8Ed-M-1" style="edgeStyle=orthogonalEdgeStyle;rounded=0;orthogonalLoop=1;jettySize=auto;html=1;exitX=0.5;exitY=1;exitDx=0;exitDy=0;entryX=0.5;entryY=0;entryDx=0;entryDy=0;labelBackgroundColor=none;strokeColor=#09555B;fontColor=default;" edge="1" parent="1" source="2noe1_d6BOTrs1J8Ed-M-2" target="2noe1_d6BOTrs1J8Ed-M-6">
          <mxGeometry relative="1" as="geometry" />
        </mxCell>
        <mxCell id="2noe1_d6BOTrs1J8Ed-M-2" value="更新渠道配置" style="rounded=1;whiteSpace=wrap;html=1;fontSize=12;glass=0;strokeWidth=1;shadow=0;labelBackgroundColor=none;fillColor=#FAD9D5;strokeColor=#D0CEE2;fontColor=#1A1A1A;" vertex="1" parent="1">
          <mxGeometry x="350" y="110" width="120" height="40" as="geometry" />
        </mxCell>
        <mxCell id="2noe1_d6BOTrs1J8Ed-M-3" style="edgeStyle=orthogonalEdgeStyle;rounded=0;orthogonalLoop=1;jettySize=auto;html=1;exitX=1;exitY=0.5;exitDx=0;exitDy=0;entryX=1;entryY=0.5;entryDx=0;entryDy=0;labelBackgroundColor=none;strokeColor=#09555B;fontColor=default;" edge="1" parent="1" source="2noe1_d6BOTrs1J8Ed-M-6" target="2noe1_d6BOTrs1J8Ed-M-19">
          <mxGeometry relative="1" as="geometry">
            <mxPoint x="510" y="240" as="targetPoint" />
            <Array as="points">
              <mxPoint x="560" y="240" />
              <mxPoint x="560" y="653" />
            </Array>
          </mxGeometry>
        </mxCell>
        <mxCell id="2noe1_d6BOTrs1J8Ed-M-4" value="NO" style="edgeLabel;html=1;align=center;verticalAlign=middle;resizable=0;points=[];labelBackgroundColor=none;fontColor=#1A1A1A;" vertex="1" connectable="0" parent="2noe1_d6BOTrs1J8Ed-M-3">
          <mxGeometry x="-0.9017" y="1" relative="1" as="geometry">
            <mxPoint as="offset" />
          </mxGeometry>
        </mxCell>
        <mxCell id="2noe1_d6BOTrs1J8Ed-M-5" value="YES" style="edgeStyle=orthogonalEdgeStyle;rounded=0;orthogonalLoop=1;jettySize=auto;html=1;exitX=0.5;exitY=1;exitDx=0;exitDy=0;entryX=0.5;entryY=0;entryDx=0;entryDy=0;labelBackgroundColor=none;strokeColor=#09555B;fontColor=default;" edge="1" parent="1" source="2noe1_d6BOTrs1J8Ed-M-6" target="2noe1_d6BOTrs1J8Ed-M-13">
          <mxGeometry relative="1" as="geometry">
            <mxPoint x="410" y="320" as="targetPoint" />
          </mxGeometry>
        </mxCell>
        <mxCell id="2noe1_d6BOTrs1J8Ed-M-6" value="更新账单周期？" style="rhombus;whiteSpace=wrap;html=1;shadow=0;fontFamily=Helvetica;fontSize=12;align=center;strokeWidth=1;spacing=6;spacingTop=-4;labelBackgroundColor=none;fillColor=#d5e8d4;strokeColor=#82b366;" vertex="1" parent="1">
          <mxGeometry x="360" y="200" width="100" height="80" as="geometry" />
        </mxCell>
        <mxCell id="2noe1_d6BOTrs1J8Ed-M-7" style="edgeStyle=orthogonalEdgeStyle;rounded=0;orthogonalLoop=1;jettySize=auto;html=1;exitX=1;exitY=0.5;exitDx=0;exitDy=0;labelBackgroundColor=none;strokeColor=#09555B;fontColor=default;" edge="1" parent="1" source="2noe1_d6BOTrs1J8Ed-M-9" target="2noe1_d6BOTrs1J8Ed-M-17">
          <mxGeometry relative="1" as="geometry" />
        </mxCell>
        <mxCell id="2noe1_d6BOTrs1J8Ed-M-8" style="edgeStyle=orthogonalEdgeStyle;rounded=0;orthogonalLoop=1;jettySize=auto;html=1;exitX=0.5;exitY=1;exitDx=0;exitDy=0;entryX=0.5;entryY=0;entryDx=0;entryDy=0;labelBackgroundColor=none;strokeColor=#09555B;fontColor=default;" edge="1" parent="1" source="2noe1_d6BOTrs1J8Ed-M-9" target="2noe1_d6BOTrs1J8Ed-M-16">
          <mxGeometry relative="1" as="geometry" />
        </mxCell>
        <mxCell id="2noe1_d6BOTrs1J8Ed-M-9" value="生成预对账单" style="rounded=1;whiteSpace=wrap;html=1;fontSize=12;glass=0;strokeWidth=1;shadow=0;labelBackgroundColor=none;fillColor=#FAD9D5;strokeColor=#D0CEE2;fontColor=#1A1A1A;" vertex="1" parent="1">
          <mxGeometry x="350" y="440" width="120" height="40" as="geometry" />
        </mxCell>
        <mxCell id="2noe1_d6BOTrs1J8Ed-M-10" value="1、获取某渠道且账单范围结束时间大于日期（当前时间&lt;br&gt;）的对账单&lt;br style=&quot;border-color: var(--border-color);&quot;&gt;2、账单范围内不更新，大于部分删除，再重新生成预对账单" style="shape=document;whiteSpace=wrap;html=1;boundedLbl=1;labelBackgroundColor=none;fillColor=#fff2cc;strokeColor=#d6b656;align=left;" vertex="1" parent="1">
          <mxGeometry x="40" y="310" width="230" height="97" as="geometry" />
        </mxCell>
        <mxCell id="2noe1_d6BOTrs1J8Ed-M-11" style="edgeStyle=orthogonalEdgeStyle;rounded=0;orthogonalLoop=1;jettySize=auto;html=1;exitX=0;exitY=0.5;exitDx=0;exitDy=0;entryX=1.003;entryY=0.404;entryDx=0;entryDy=0;entryPerimeter=0;labelBackgroundColor=none;strokeColor=#09555B;fontColor=default;" edge="1" parent="1" source="2noe1_d6BOTrs1J8Ed-M-13" target="2noe1_d6BOTrs1J8Ed-M-10">
          <mxGeometry relative="1" as="geometry" />
        </mxCell>
        <mxCell id="2noe1_d6BOTrs1J8Ed-M-12" style="edgeStyle=orthogonalEdgeStyle;rounded=0;orthogonalLoop=1;jettySize=auto;html=1;exitX=0.5;exitY=1;exitDx=0;exitDy=0;entryX=0.5;entryY=0;entryDx=0;entryDy=0;labelBackgroundColor=none;strokeColor=#09555B;fontColor=default;" edge="1" parent="1" source="2noe1_d6BOTrs1J8Ed-M-13" target="2noe1_d6BOTrs1J8Ed-M-9">
          <mxGeometry relative="1" as="geometry" />
        </mxCell>
        <mxCell id="2noe1_d6BOTrs1J8Ed-M-13" value="更新/删除对账单" style="rounded=1;whiteSpace=wrap;html=1;fontSize=12;glass=0;strokeWidth=1;shadow=0;labelBackgroundColor=none;fillColor=#FAD9D5;strokeColor=#D0CEE2;fontColor=#1A1A1A;" vertex="1" parent="1">
          <mxGeometry x="350" y="330" width="120" height="40" as="geometry" />
        </mxCell>
        <mxCell id="2noe1_d6BOTrs1J8Ed-M-14" style="edgeStyle=orthogonalEdgeStyle;rounded=0;orthogonalLoop=1;jettySize=auto;html=1;exitX=0;exitY=0.5;exitDx=0;exitDy=0;entryX=1;entryY=0.5;entryDx=0;entryDy=0;labelBackgroundColor=none;strokeColor=#09555B;fontColor=default;" edge="1" parent="1" source="2noe1_d6BOTrs1J8Ed-M-16" target="2noe1_d6BOTrs1J8Ed-M-18">
          <mxGeometry relative="1" as="geometry" />
        </mxCell>
        <mxCell id="2noe1_d6BOTrs1J8Ed-M-15" value="" style="edgeStyle=orthogonalEdgeStyle;rounded=0;orthogonalLoop=1;jettySize=auto;html=1;labelBackgroundColor=none;strokeColor=#09555B;fontColor=default;" edge="1" parent="1" source="2noe1_d6BOTrs1J8Ed-M-16" target="2noe1_d6BOTrs1J8Ed-M-19">
          <mxGeometry relative="1" as="geometry" />
        </mxCell>
        <mxCell id="2noe1_d6BOTrs1J8Ed-M-16" value="更新账单生效状态" style="rounded=1;whiteSpace=wrap;html=1;fontSize=12;glass=0;strokeWidth=1;shadow=0;labelBackgroundColor=none;fillColor=#FAD9D5;strokeColor=#D0CEE2;fontColor=#1A1A1A;" vertex="1" parent="1">
          <mxGeometry x="350" y="545" width="120" height="40" as="geometry" />
        </mxCell>
        <mxCell id="2noe1_d6BOTrs1J8Ed-M-17" value="1、获取某渠道且账单范围结束时间大于当前时间的对账单&lt;br&gt;2、List≤2，生成当前账单或下个周期账单" style="shape=document;whiteSpace=wrap;html=1;boundedLbl=1;align=left;labelBackgroundColor=none;fillColor=#fff2cc;strokeColor=#d6b656;" vertex="1" parent="1">
          <mxGeometry x="590" y="420" width="180" height="80" as="geometry" />
        </mxCell>
        <mxCell id="2noe1_d6BOTrs1J8Ed-M-18" value="1、是当前对账单，且状态为未生效" style="shape=document;whiteSpace=wrap;html=1;boundedLbl=1;align=left;labelBackgroundColor=none;fillColor=#fff2cc;strokeColor=#d6b656;" vertex="1" parent="1">
          <mxGeometry x="100" y="525" width="180" height="80" as="geometry" />
        </mxCell>
        <mxCell id="2noe1_d6BOTrs1J8Ed-M-19" value="END" style="ellipse;whiteSpace=wrap;html=1;rounded=1;glass=0;strokeWidth=1;shadow=0;labelBackgroundColor=none;fillColor=#dae8fc;strokeColor=#6c8ebf;" vertex="1" parent="1">
          <mxGeometry x="385" y="630" width="50" height="45" as="geometry" />
        </mxCell>
        <mxCell id="2noe1_d6BOTrs1J8Ed-M-20" style="edgeStyle=orthogonalEdgeStyle;rounded=0;orthogonalLoop=1;jettySize=auto;html=1;exitX=0.5;exitY=1;exitDx=0;exitDy=0;labelBackgroundColor=none;strokeColor=#09555B;fontColor=default;" edge="1" parent="1" source="2noe1_d6BOTrs1J8Ed-M-21" target="2noe1_d6BOTrs1J8Ed-M-2">
          <mxGeometry relative="1" as="geometry" />
        </mxCell>
        <mxCell id="2noe1_d6BOTrs1J8Ed-M-21" value="START" style="ellipse;whiteSpace=wrap;html=1;rounded=1;glass=0;strokeWidth=1;shadow=0;labelBackgroundColor=none;fillColor=#dae8fc;strokeColor=#6c8ebf;" vertex="1" parent="1">
          <mxGeometry x="390" y="24" width="40" height="40" as="geometry" />
        </mxCell>
      </root>
    </mxGraphModel>
  </diagram>
</mxfile>
